<svg width="319" height="91" viewBox="0 0 319 91" fill="none" xmlns="http://www.w3.org/2000/svg">
<path fill-rule="evenodd" clip-rule="evenodd" d="M313.987 49.9285C313.987 49.9285 235.813 18.5036 151.436 6.14069C107.21 -0.339598 101.938 28.5892 101.414 40.8494C100.891 53.1096 103.677 82.3826 148.294 79.6968C233.418 74.5759 313.987 49.9285 313.987 49.9285Z" fill="#EF7925"/>
<path fill-rule="evenodd" clip-rule="evenodd" d="M314.921 47.6067C315.143 47.7658 315.401 47.8707 315.62 48.0322C315.892 48.229 316.111 48.6037 316.144 48.6584C316.242 48.8223 316.825 49.8162 316.239 51.024C316.183 51.1408 315.864 51.7918 315.102 52.1702C314.709 52.364 314.69 52.3074 311.06 53.4258C291.312 59.5125 270.372 64.6148 270.129 64.6755C264.227 66.1382 256.784 67.8243 255.621 68.0866C230.628 73.7464 214.19 76.3776 206.097 77.6351C205.881 77.669 203.477 78.0685 196.692 78.9735C195.242 79.1653 187.661 80.2164 175.398 81.3973C166.278 82.2761 157.124 82.8262 155.533 82.9231C146.747 83.4509 144.072 83.4787 140.795 83.3667C105.33 82.1487 100.019 59.1375 98.8672 49.7813C98.8359 49.5263 97.9386 43.3796 99.0301 35.3571C101.028 20.6714 108.216 13.7108 110.673 11.4947C123.391 0.0191475 141.963 1.25629 152.453 2.66574C154.664 2.96312 166.506 4.55454 180 7.03083C184.005 7.76501 191.527 9.23546 195.839 10.1654C204.218 11.9717 208.659 13.0594 209.769 13.33C215.288 14.6844 222.062 16.3765 233.506 19.6099C240.718 21.648 249.177 24.2618 250.535 24.6825C258.941 27.2789 270.67 31.0141 286.347 36.653C298.015 40.8499 308.392 44.8824 314.921 47.6067ZM179.35 72.9946C179.688 72.9533 180.029 72.912 180.371 72.8708C183.283 72.5132 192.419 71.3434 200.26 70.2019C206.678 69.266 208.155 69.0907 214.901 68.0394C215.554 67.938 223.046 66.8374 235.757 64.628C240.199 63.8563 254.306 61.4123 275.306 56.8402C277.85 56.2867 291.723 53.267 305.773 49.6004C297.676 46.7255 283.376 41.8506 264.738 36.3465C253.883 33.1408 246.311 30.958 231.893 27.2348C231.435 27.1163 226.135 25.7053 214.142 22.8061C213.445 22.6393 212.846 22.4945 212.315 22.3678C213.888 25.9381 214.433 29.4721 214.512 29.9296C214.545 30.1187 214.753 31.4822 214.855 32.6128C215.432 39.0223 214.741 44.6191 214.696 45.6851C214.69 45.8472 214.652 46.7664 213.849 47.5033C213.602 47.7286 213.308 47.9139 212.994 48.0273C211.96 48.4068 211.111 48.0103 210.964 47.9406C209.998 47.4884 209.684 46.6379 209.63 46.4885C209.398 45.8596 209.478 45.8428 209.471 45.1703C209.464 44.5992 209.431 41.6071 209.152 38.0387C208.96 35.5801 208.27 29.1125 206.917 25.0595C206.137 22.7254 205.276 21.3493 204.626 20.5606C204.223 20.4647 203.789 20.3625 203.316 20.251C202.207 19.9905 197.679 18.9219 189.421 17.0954C189.062 17.0141 177.48 14.4394 165.547 12.2149C162.896 11.7212 157.089 10.6716 152.38 9.91237C153.026 11.2768 153.992 13.6467 154.631 16.7916C155.215 19.6652 155.538 22.8499 155.412 28.1436C155.372 29.8491 155.162 32.3489 155.132 32.7129C155.054 33.6329 155.043 33.6425 155.031 33.9287C155.024 34.1009 154.983 35.0859 154.123 35.8761C153.859 36.1185 153.543 36.3155 153.207 36.4407C152.099 36.8449 151.189 36.4205 151.031 36.3478C149.997 35.8622 149.66 34.9474 149.602 34.7901C149.358 34.1252 149.442 34.1085 149.431 33.3978C149.423 32.847 149.381 30.0422 149.107 26.5197C148.863 23.3993 148.127 17.3915 146.966 13.6917C146.172 11.1617 145.26 9.69961 144.599 8.89264C120.804 6.82869 111.972 16.9888 108.148 24.6664C106.916 27.1428 105.051 31.7281 104.412 38.7756C104.165 41.4945 104.254 44.1542 104.27 44.6216C104.806 60.7549 112.94 67.4237 116.246 69.7617C127.9 78.0064 144.816 76.3571 151.046 75.8698C151.37 75.843 159.164 75.2805 171.497 73.9098C172.11 73.0786 172.816 71.881 173.504 70.1804C173.74 69.5969 174.469 67.7762 175.426 63.837C175.913 61.8336 176.656 58.5017 177.278 53.6629C177.401 52.7017 177.6 50.9777 177.618 50.5675C177.626 50.3953 177.669 49.4104 178.527 48.6251C179.385 47.8374 180.368 47.8794 180.54 47.8867C180.711 47.894 181.695 47.9335 182.483 48.7941C182.726 49.0582 182.924 49.3735 183.047 49.7111C183.294 50.3812 183.212 50.4005 183.216 51.1161C183.246 55.8837 183.003 59.9371 182.259 64.0985C181.926 65.9639 181.401 67.7197 181.309 68.0303C180.696 70.0842 179.953 71.7825 179.35 72.9946Z" fill="#080706"/>
<path fill-rule="evenodd" clip-rule="evenodd" d="M105.683 30.1499C111.264 30.0304 109.707 37.5788 109.707 37.5788C111.863 40.6572 111.4 42.9153 109.748 44.8012C109.551 50.3605 107.68 52.266 104.756 51.8741L8.25786 61.9488L4.56817 47.3044L16.9189 35.5957L16.9521 22.3474L26.5595 12.5761L105.683 30.1499Z" fill="#66B446"/>
<path fill-rule="evenodd" clip-rule="evenodd" d="M112.225 45.6918C112.12 47.9016 111.597 52.822 107.528 54.2323C106.227 54.6835 105.035 54.5818 104.596 54.5394C75.5652 57.9734 75.5339 58.0719 46.4056 61.4219C43.3857 61.7688 22.9207 64.1227 8.64639 65.6711C7.41729 65.8039 6.51939 65.2805 6.35774 65.1864C6.15695 65.0689 5.00184 64.3964 4.60888 62.8665C3.35477 57.9919 2.11721 53.1125 0.891418 48.23C0.74918 47.6644 0.774781 47.1842 0.779741 47.0935C0.791701 46.8688 0.859511 45.6001 1.9586 44.5517C3.68782 42.8999 5.43267 41.265 7.17386 39.6264C9.17528 37.7428 11.3871 36.0625 13.1867 33.9868C13.473 33.6557 13.1923 33.1115 13.1971 32.6757C13.2352 29.2295 13.2621 25.7829 13.3152 22.3374C13.3185 22.1196 13.338 20.867 14.3774 19.816C15.3657 18.8156 23.6444 10.5279 24.0615 10.1189C25.4407 8.76816 27.0462 9.13826 27.3094 9.19854C31.69 10.2122 36.0653 11.2474 40.4411 12.2808C47.116 13.8556 53.7906 15.4322 60.4621 17.0232L105.908 27.9197C106.898 27.9093 110.274 28.1316 111.673 31.9243C112.352 33.7662 112.299 35.8057 112.183 36.9979C112.779 37.9534 113.6 39.5616 113.608 41.4856C113.615 43.3787 112.836 44.8205 112.225 45.6918ZM105.731 32.3699C105.556 32.3425 105.377 32.3457 105.202 32.3183C105.187 32.3158 92.9117 29.8315 92.4048 29.7281L27.6894 16.3937C26.5082 19.6166 21.7528 20.6106 20.5715 23.8336C20.2439 24.7278 21.4846 24.7754 20.6376 35.731C20.5957 36.2723 20.6278 36.2791 20.4569 36.7932C20.4115 36.9293 20.1692 37.6583 19.4954 38.3144C18.0287 39.7413 16.5444 41.1492 15.0645 42.5611C12.9767 44.5536 10.8797 46.5385 8.79189 48.5311L11.1047 57.8742C17.7231 57.2395 24.3384 56.5702 30.9569 55.9337C48.5122 54.2476 65.226 52.7362 68.2066 52.4656C69.9572 52.3079 104.394 49.221 104.478 49.2156C105.291 49.154 105.791 49.5041 106.222 48.9685C106.743 48.3205 107.125 46.82 107.236 44.8302C107.251 44.5565 107.238 44.5541 107.294 44.2859C107.308 44.2193 107.383 43.8664 107.605 43.4999C107.79 43.1972 107.815 43.2164 108.043 42.9427C108.775 42.0639 109.165 41.0779 107.797 39.0031C107.67 38.8106 107.661 38.8156 107.561 38.6079C107.521 38.5263 107.308 38.0794 107.329 37.4954C107.338 37.2215 107.46 36.827 107.531 35.9781C107.552 35.7338 107.779 33.0423 106.628 32.5263C106.242 32.3536 105.731 32.3735 105.731 32.3699Z" fill="#080706"/>
</svg>
